<?xml version="1.0" encoding="UTF-8"?>
<!DOCTYPE svg PUBLIC "-//W3C//DTD SVG 1.1//EN" "http://www.w3.org/Graphics/SVG/1.1/DTD/svg11.dtd">
<!-- Creator: CorelDRAW 2021 (64-Bit) -->
<svg xmlns="http://www.w3.org/2000/svg" xml:space="preserve" width="100mm" height="100mm" version="1.1" style="shape-rendering:geometricPrecision; text-rendering:geometricPrecision; image-rendering:optimizeQuality; fill-rule:evenodd; clip-rule:evenodd"
viewBox="0 0 10000 10000"
 xmlns:xlink="http://www.w3.org/1999/xlink"
 xmlns:xodm="http://www.corel.com/coreldraw/odm/2003">
 <defs>
  <style type="text/css">
   <![CDATA[
    .str0 {stroke:#5F1F61;stroke-width:33.87;stroke-linecap:round;stroke-linejoin:round;stroke-miterlimit:22.9256}
    .fil0 {fill:#1A1A1A}
    .fil1 {fill:#CCCCFF}
    .fil72 {fill:url(#id0)}
    .fil112 {fill:url(#id1)}
    .fil89 {fill:url(#id2)}
    .fil81 {fill:url(#id3)}
    .fil96 {fill:url(#id4)}
    .fil105 {fill:url(#id5)}
    .fil64 {fill:url(#id6)}
    .fil93 {fill:url(#id7)}
    .fil111 {fill:url(#id8)}
    .fil86 {fill:url(#id9)}
    .fil102 {fill:url(#id10)}
    .fil78 {fill:url(#id11)}
    .fil76 {fill:url(#id12)}
    .fil116 {fill:url(#id13)}
    .fil91 {fill:url(#id14)}
    .fil84 {fill:url(#id15)}
    .fil100 {fill:url(#id16)}
    .fil109 {fill:url(#id17)}
    .fil68 {fill:url(#id18)}
    .fil63 {fill:url(#id19)}
    .fil104 {fill:url(#id20)}
    .fil88 {fill:url(#id21)}
    .fil80 {fill:url(#id22)}
    .fil71 {fill:url(#id23)}
    .fil95 {fill:url(#id24)}
    .fil12 {fill:url(#id25)}
    .fil29 {fill:url(#id26)}
    .fil21 {fill:url(#id27)}
    .fil36 {fill:url(#id28)}
    .fil45 {fill:url(#id29)}
    .fil25 {fill:url(#id30)}
    .fil17 {fill:url(#id31)}
    .fil9 {fill:url(#id32)}
    .fil4 {fill:url(#id33)}
    .fil57 {fill:url(#id34)}
    .fil50 {fill:url(#id35)}
    .fil41 {fill:url(#id36)}
    .fil18 {fill:url(#id37)}
    .fil10 {fill:url(#id38)}
    .fil33 {fill:url(#id39)}
    .fil58 {fill:url(#id40)}
    .fil26 {fill:url(#id41)}
    .fil42 {fill:url(#id42)}
    .fil51 {fill:url(#id43)}
    .fil22 {fill:url(#id44)}
    .fil13 {fill:url(#id45)}
    .fil5 {fill:url(#id46)}
    .fil30 {fill:url(#id47)}
    .fil46 {fill:url(#id48)}
    .fil37 {fill:url(#id49)}
    .fil14 {fill:url(#id50)}
    .fil6 {fill:url(#id51)}
    .fil31 {fill:url(#id52)}
    .fil54 {fill:url(#id53)}
    .fil23 {fill:url(#id54)}
    .fil38 {fill:url(#id55)}
    .fil47 {fill:url(#id56)}
    .fil70 {fill:url(#id57)}
    .fil87 {fill:url(#id58)}
    .fil79 {fill:url(#id59)}
    .fil94 {fill:url(#id60)}
    .fil103 {fill:url(#id61)}
    .fil35 {fill:url(#id62)}
    .fil20 {fill:url(#id63)}
    .fil28 {fill:url(#id64)}
    .fil44 {fill:url(#id65)}
    .fil53 {fill:url(#id66)}
    .fil27 {fill:url(#id67)}
    .fil19 {fill:url(#id68)}
    .fil11 {fill:url(#id69)}
    .fil34 {fill:url(#id70)}
    .fil52 {fill:url(#id71)}
    .fil43 {fill:url(#id72)}
    .fil60 {fill:url(#id73)}
    .fil65 {fill:url(#id74)}
    .fil106 {fill:url(#id75)}
    .fil82 {fill:url(#id76)}
    .fil73 {fill:url(#id77)}
    .fil97 {fill:url(#id78)}
    .fil113 {fill:url(#id79)}
    .fil69 {fill:url(#id80)}
    .fil110 {fill:url(#id81)}
    .fil92 {fill:url(#id82)}
    .fil85 {fill:url(#id83)}
    .fil77 {fill:url(#id84)}
    .fil101 {fill:url(#id85)}
    .fil62 {fill:url(#id86)}
    .fil67 {fill:url(#id87)}
    .fil108 {fill:url(#id88)}
    .fil83 {fill:url(#id89)}
    .fil75 {fill:url(#id90)}
    .fil99 {fill:url(#id91)}
    .fil115 {fill:url(#id92)}
    .fil117 {fill:url(#id93)}
    .fil74 {fill:url(#id94)}
    .fil114 {fill:url(#id95)}
    .fil90 {fill:url(#id96)}
    .fil61 {fill:url(#id97)}
    .fil98 {fill:url(#id98)}
    .fil107 {fill:url(#id99)}
    .fil66 {fill:url(#id100)}
    .fil16 {fill:url(#id101)}
    .fil8 {fill:url(#id102)}
    .fil32 {fill:url(#id103)}
    .fil59 {fill:url(#id104)}
    .fil3 {fill:url(#id105)}
    .fil56 {fill:url(#id106)}
    .fil40 {fill:url(#id107)}
    .fil49 {fill:url(#id108)}
    .fil24 {fill:url(#id109)}
    .fil15 {fill:url(#id110)}
    .fil7 {fill:url(#id111)}
    .fil2 {fill:url(#id112)}
    .fil55 {fill:url(#id113)}
    .fil48 {fill:url(#id114)}
    .fil39 {fill:url(#id115)}
   ]]>
  </style>
  <linearGradient id="id0" gradientUnits="userSpaceOnUse" x1="-16730.03" y1="3281.92" x2="-15876.44" y2="3897.96">
   <stop offset="0" style="stop-opacity:1; stop-color:#D244FA"/>
   <stop offset="1" style="stop-opacity:1; stop-color:#A6267E"/>
  </linearGradient>
  <linearGradient id="id1" gradientUnits="userSpaceOnUse" xlink:href="#id0" x1="-16730.03" y1="8048.71" x2="-15876.44" y2="8664.75">
  </linearGradient>
  <linearGradient id="id2" gradientUnits="userSpaceOnUse" xlink:href="#id0" x1="-16730.03" y1="5188.64" x2="-15876.44" y2="5804.67">
  </linearGradient>
  <linearGradient id="id3" gradientUnits="userSpaceOnUse" xlink:href="#id0" x1="-16730.03" y1="4235.28" x2="-15876.44" y2="4851.32">
  </linearGradient>
  <linearGradient id="id4" gradientUnits="userSpaceOnUse" xlink:href="#id0" x1="-16730.03" y1="6142" x2="-15876.44" y2="6758.03">
  </linearGradient>
  <linearGradient id="id5" gradientUnits="userSpaceOnUse" xlink:href="#id0" x1="-16730.03" y1="7095.35" x2="-15876.44" y2="7711.39">
  </linearGradient>
  <linearGradient id="id6" gradientUnits="userSpaceOnUse" xlink:href="#id0" x1="-16730.03" y1="2328.56" x2="-15876.44" y2="2944.6">
  </linearGradient>
  <linearGradient id="id7" gradientUnits="userSpaceOnUse" x1="-10922.56" y1="5804.67" x2="-11776.15" y2="5188.64">
   <stop offset="0" style="stop-opacity:1; stop-color:#D244FA"/>
   <stop offset="1" style="stop-opacity:1; stop-color:#801E61"/>
  </linearGradient>
  <linearGradient id="id8" gradientUnits="userSpaceOnUse" xlink:href="#id7" x1="-10922.56" y1="7711.39" x2="-11776.15" y2="7095.35">
  </linearGradient>
  <linearGradient id="id9" gradientUnits="userSpaceOnUse" xlink:href="#id7" x1="-10922.56" y1="4851.31" x2="-11776.15" y2="4235.28">
  </linearGradient>
  <linearGradient id="id10" gradientUnits="userSpaceOnUse" xlink:href="#id7" x1="-10922.56" y1="6758.03" x2="-11776.15" y2="6142">
  </linearGradient>
  <linearGradient id="id11" gradientUnits="userSpaceOnUse" xlink:href="#id7" x1="-10922.56" y1="3897.96" x2="-11776.15" y2="3281.92">
  </linearGradient>
  <linearGradient id="id12" gradientUnits="userSpaceOnUse" x1="-13427.46" y1="3281.92" x2="-12573.86" y2="3897.96">
   <stop offset="0" style="stop-opacity:1; stop-color:#D244FA"/>
   <stop offset="1" style="stop-opacity:1; stop-color:#8A1565"/>
  </linearGradient>
  <linearGradient id="id13" gradientUnits="userSpaceOnUse" xlink:href="#id12" x1="-13427.46" y1="8048.71" x2="-12573.86" y2="8664.75">
  </linearGradient>
  <linearGradient id="id14" gradientUnits="userSpaceOnUse" xlink:href="#id12" x1="-13427.46" y1="5188.64" x2="-12573.86" y2="5804.67">
  </linearGradient>
  <linearGradient id="id15" gradientUnits="userSpaceOnUse" xlink:href="#id12" x1="-13427.46" y1="4235.28" x2="-12573.86" y2="4851.32">
  </linearGradient>
  <linearGradient id="id16" gradientUnits="userSpaceOnUse" xlink:href="#id12" x1="-13427.46" y1="6142" x2="-12573.86" y2="6758.03">
  </linearGradient>
  <linearGradient id="id17" gradientUnits="userSpaceOnUse" xlink:href="#id12" x1="-13427.46" y1="7095.35" x2="-12573.86" y2="7711.39">
  </linearGradient>
  <linearGradient id="id18" gradientUnits="userSpaceOnUse" xlink:href="#id12" x1="-13427.46" y1="2328.56" x2="-12573.86" y2="2944.6">
  </linearGradient>
  <linearGradient id="id19" gradientUnits="userSpaceOnUse" xlink:href="#id0" x1="-16702.06" y1="3421.28" x2="-17555.66" y2="2805.24">
  </linearGradient>
  <linearGradient id="id20" gradientUnits="userSpaceOnUse" xlink:href="#id0" x1="-16702.06" y1="8188.07" x2="-17555.66" y2="7572.03">
  </linearGradient>
  <linearGradient id="id21" gradientUnits="userSpaceOnUse" xlink:href="#id0" x1="-16702.06" y1="6281.35" x2="-17555.66" y2="5665.32">
  </linearGradient>
  <linearGradient id="id22" gradientUnits="userSpaceOnUse" xlink:href="#id0" x1="-16702.06" y1="5327.99" x2="-17555.66" y2="4711.96">
  </linearGradient>
  <linearGradient id="id23" gradientUnits="userSpaceOnUse" xlink:href="#id0" x1="-16702.06" y1="4374.64" x2="-17555.66" y2="3758.6">
  </linearGradient>
  <linearGradient id="id24" gradientUnits="userSpaceOnUse" xlink:href="#id0" x1="-16702.06" y1="7234.71" x2="-17555.66" y2="6618.67">
  </linearGradient>
  <linearGradient id="id25" gradientUnits="userSpaceOnUse" xlink:href="#id0" x1="1044.86" y1="2657.25" x2="1949.25" y2="3309.95">
  </linearGradient>
  <linearGradient id="id26" gradientUnits="userSpaceOnUse" xlink:href="#id0" x1="1044.86" y1="4677.45" x2="1949.25" y2="5330.16">
  </linearGradient>
  <linearGradient id="id27" gradientUnits="userSpaceOnUse" xlink:href="#id0" x1="1044.86" y1="3667.35" x2="1949.25" y2="4320.06">
  </linearGradient>
  <linearGradient id="id28" gradientUnits="userSpaceOnUse" xlink:href="#id0" x1="1044.86" y1="5687.56" x2="1949.25" y2="6340.26">
  </linearGradient>
  <linearGradient id="id29" gradientUnits="userSpaceOnUse" xlink:href="#id0" x1="1044.86" y1="6697.66" x2="1949.25" y2="7350.36">
  </linearGradient>
  <linearGradient id="id30" gradientUnits="userSpaceOnUse" xlink:href="#id12" x1="6323.18" y1="4825.11" x2="5418.78" y2="4172.4">
  </linearGradient>
  <linearGradient id="id31" gradientUnits="userSpaceOnUse" xlink:href="#id12" x1="6323.18" y1="3815" x2="5418.78" y2="3162.3">
  </linearGradient>
  <linearGradient id="id32" gradientUnits="userSpaceOnUse" xlink:href="#id12" x1="6323.18" y1="2804.9" x2="5418.78" y2="2152.2">
  </linearGradient>
  <linearGradient id="id33" gradientUnits="userSpaceOnUse" xlink:href="#id12" x1="6323.18" y1="1794.8" x2="5418.78" y2="1142.1">
  </linearGradient>
  <linearGradient id="id34" gradientUnits="userSpaceOnUse" xlink:href="#id12" x1="6323.18" y1="8865.51" x2="5418.78" y2="8212.81">
  </linearGradient>
  <linearGradient id="id35" gradientUnits="userSpaceOnUse" xlink:href="#id12" x1="6323.18" y1="7855.41" x2="5418.78" y2="7202.71">
  </linearGradient>
  <linearGradient id="id36" gradientUnits="userSpaceOnUse" xlink:href="#id12" x1="6323.18" y1="6845.31" x2="5418.78" y2="6192.61">
  </linearGradient>
  <linearGradient id="id37" gradientUnits="userSpaceOnUse" xlink:href="#id12" x1="6293.55" y1="2657.25" x2="7197.95" y2="3309.95">
  </linearGradient>
  <linearGradient id="id38" gradientUnits="userSpaceOnUse" xlink:href="#id12" x1="6293.55" y1="1647.15" x2="7197.95" y2="2299.85">
  </linearGradient>
  <linearGradient id="id39" gradientUnits="userSpaceOnUse" xlink:href="#id12" x1="6293.55" y1="4677.45" x2="7197.95" y2="5330.16">
  </linearGradient>
  <linearGradient id="id40" gradientUnits="userSpaceOnUse" xlink:href="#id12" x1="6293.55" y1="7707.76" x2="7197.95" y2="8360.46">
  </linearGradient>
  <linearGradient id="id41" gradientUnits="userSpaceOnUse" xlink:href="#id12" x1="6293.55" y1="3667.35" x2="7197.95" y2="4320.06">
  </linearGradient>
  <linearGradient id="id42" gradientUnits="userSpaceOnUse" xlink:href="#id12" x1="6293.55" y1="5687.56" x2="7197.95" y2="6340.26">
  </linearGradient>
  <linearGradient id="id43" gradientUnits="userSpaceOnUse" xlink:href="#id12" x1="6293.55" y1="6697.66" x2="7197.95" y2="7350.36">
  </linearGradient>
  <linearGradient id="id44" gradientUnits="userSpaceOnUse" xlink:href="#id0" x1="2824.05" y1="4825.11" x2="1919.65" y2="4172.4">
  </linearGradient>
  <linearGradient id="id45" gradientUnits="userSpaceOnUse" xlink:href="#id0" x1="2824.05" y1="3815" x2="1919.65" y2="3162.3">
  </linearGradient>
  <linearGradient id="id46" gradientUnits="userSpaceOnUse" xlink:href="#id0" x1="2824.05" y1="2804.9" x2="1919.65" y2="2152.2">
  </linearGradient>
  <linearGradient id="id47" gradientUnits="userSpaceOnUse" xlink:href="#id0" x1="2824.05" y1="5835.21" x2="1919.65" y2="5182.5">
  </linearGradient>
  <linearGradient id="id48" gradientUnits="userSpaceOnUse" xlink:href="#id0" x1="2824.05" y1="7855.41" x2="1919.65" y2="7202.71">
  </linearGradient>
  <linearGradient id="id49" gradientUnits="userSpaceOnUse" xlink:href="#id0" x1="2824.05" y1="6845.31" x2="1919.65" y2="6192.61">
  </linearGradient>
  <linearGradient id="id50" gradientUnits="userSpaceOnUse" xlink:href="#id0" x1="2794.41" y1="2657.25" x2="3698.81" y2="3309.95">
  </linearGradient>
  <linearGradient id="id51" gradientUnits="userSpaceOnUse" xlink:href="#id0" x1="2794.41" y1="1647.15" x2="3698.81" y2="2299.85">
  </linearGradient>
  <linearGradient id="id52" gradientUnits="userSpaceOnUse" xlink:href="#id0" x1="2794.41" y1="4677.45" x2="3698.81" y2="5330.16">
  </linearGradient>
  <linearGradient id="id53" gradientUnits="userSpaceOnUse" xlink:href="#id0" x1="2794.41" y1="7707.76" x2="3698.81" y2="8360.46">
  </linearGradient>
  <linearGradient id="id54" gradientUnits="userSpaceOnUse" xlink:href="#id0" x1="2794.41" y1="3667.35" x2="3698.81" y2="4320.06">
  </linearGradient>
  <linearGradient id="id55" gradientUnits="userSpaceOnUse" xlink:href="#id0" x1="2794.41" y1="5687.56" x2="3698.81" y2="6340.26">
  </linearGradient>
  <linearGradient id="id56" gradientUnits="userSpaceOnUse" xlink:href="#id0" x1="2794.41" y1="6697.66" x2="3698.81" y2="7350.36">
  </linearGradient>
  <linearGradient id="id57" gradientUnits="userSpaceOnUse" xlink:href="#id0" x1="-18381.31" y1="3281.92" x2="-17527.71" y2="3897.96">
  </linearGradient>
  <linearGradient id="id58" gradientUnits="userSpaceOnUse" xlink:href="#id0" x1="-18381.31" y1="5188.64" x2="-17527.71" y2="5804.67">
  </linearGradient>
  <linearGradient id="id59" gradientUnits="userSpaceOnUse" xlink:href="#id0" x1="-18381.31" y1="4235.28" x2="-17527.71" y2="4851.32">
  </linearGradient>
  <linearGradient id="id60" gradientUnits="userSpaceOnUse" xlink:href="#id0" x1="-18381.31" y1="6142" x2="-17527.71" y2="6758.03">
  </linearGradient>
  <linearGradient id="id61" gradientUnits="userSpaceOnUse" xlink:href="#id0" x1="-18381.31" y1="7095.35" x2="-17527.71" y2="7711.39">
  </linearGradient>
  <linearGradient id="id62" gradientUnits="userSpaceOnUse" xlink:href="#id7" x1="8947.54" y1="5330.16" x2="8043.14" y2="4677.45">
  </linearGradient>
  <linearGradient id="id63" gradientUnits="userSpaceOnUse" xlink:href="#id7" x1="8947.54" y1="3309.95" x2="8043.14" y2="2657.25">
  </linearGradient>
  <linearGradient id="id64" gradientUnits="userSpaceOnUse" xlink:href="#id7" x1="8947.54" y1="4320.06" x2="8043.14" y2="3667.35">
  </linearGradient>
  <linearGradient id="id65" gradientUnits="userSpaceOnUse" xlink:href="#id7" x1="8947.54" y1="6340.26" x2="8043.14" y2="5687.56">
  </linearGradient>
  <linearGradient id="id66" gradientUnits="userSpaceOnUse" xlink:href="#id7" x1="8947.54" y1="7350.36" x2="8043.14" y2="6697.66">
  </linearGradient>
  <linearGradient id="id67" gradientUnits="userSpaceOnUse" xlink:href="#id7" x1="8072.74" y1="4825.11" x2="7168.34" y2="4172.4">
  </linearGradient>
  <linearGradient id="id68" gradientUnits="userSpaceOnUse" xlink:href="#id7" x1="8072.74" y1="3815" x2="7168.34" y2="3162.3">
  </linearGradient>
  <linearGradient id="id69" gradientUnits="userSpaceOnUse" xlink:href="#id7" x1="8072.74" y1="2804.9" x2="7168.34" y2="2152.2">
  </linearGradient>
  <linearGradient id="id70" gradientUnits="userSpaceOnUse" xlink:href="#id7" x1="8072.74" y1="5835.21" x2="7168.34" y2="5182.5">
  </linearGradient>
  <linearGradient id="id71" gradientUnits="userSpaceOnUse" xlink:href="#id7" x1="8072.74" y1="7855.41" x2="7168.34" y2="7202.71">
  </linearGradient>
  <linearGradient id="id72" gradientUnits="userSpaceOnUse" xlink:href="#id7" x1="8072.74" y1="6845.31" x2="7168.34" y2="6192.61">
  </linearGradient>
  <linearGradient id="id73" gradientUnits="userSpaceOnUse" x1="-15050.79" y1="2467.92" x2="-15904.38" y2="1851.88">
   <stop offset="0" style="stop-opacity:1; stop-color:#D244FA"/>
   <stop offset="1" style="stop-opacity:1; stop-color:#9E2076"/>
  </linearGradient>
  <linearGradient id="id74" gradientUnits="userSpaceOnUse" xlink:href="#id73" x1="-15050.79" y1="3421.28" x2="-15904.38" y2="2805.24">
  </linearGradient>
  <linearGradient id="id75" gradientUnits="userSpaceOnUse" xlink:href="#id73" x1="-15050.79" y1="8188.07" x2="-15904.38" y2="7572.03">
  </linearGradient>
  <linearGradient id="id76" gradientUnits="userSpaceOnUse" xlink:href="#id73" x1="-15050.79" y1="5327.99" x2="-15904.38" y2="4711.96">
  </linearGradient>
  <linearGradient id="id77" gradientUnits="userSpaceOnUse" xlink:href="#id73" x1="-15050.79" y1="4374.64" x2="-15904.38" y2="3758.6">
  </linearGradient>
  <linearGradient id="id78" gradientUnits="userSpaceOnUse" xlink:href="#id73" x1="-15050.79" y1="7234.71" x2="-15904.38" y2="6618.67">
  </linearGradient>
  <linearGradient id="id79" gradientUnits="userSpaceOnUse" xlink:href="#id73" x1="-15050.79" y1="9141.43" x2="-15904.38" y2="8525.39">
  </linearGradient>
  <linearGradient id="id80" gradientUnits="userSpaceOnUse" xlink:href="#id7" x1="-11748.21" y1="3421.28" x2="-12601.81" y2="2805.24">
  </linearGradient>
  <linearGradient id="id81" gradientUnits="userSpaceOnUse" xlink:href="#id7" x1="-11748.21" y1="8188.07" x2="-12601.81" y2="7572.03">
  </linearGradient>
  <linearGradient id="id82" gradientUnits="userSpaceOnUse" xlink:href="#id7" x1="-11748.21" y1="6281.35" x2="-12601.81" y2="5665.32">
  </linearGradient>
  <linearGradient id="id83" gradientUnits="userSpaceOnUse" xlink:href="#id7" x1="-11748.21" y1="5327.99" x2="-12601.81" y2="4711.96">
  </linearGradient>
  <linearGradient id="id84" gradientUnits="userSpaceOnUse" xlink:href="#id7" x1="-11748.21" y1="4374.64" x2="-12601.81" y2="3758.6">
  </linearGradient>
  <linearGradient id="id85" gradientUnits="userSpaceOnUse" xlink:href="#id7" x1="-11748.21" y1="7234.71" x2="-12601.81" y2="6618.67">
  </linearGradient>
  <linearGradient id="id86" gradientUnits="userSpaceOnUse" xlink:href="#id12" x1="-13399.49" y1="2467.92" x2="-14253.08" y2="1851.88">
  </linearGradient>
  <linearGradient id="id87" gradientUnits="userSpaceOnUse" xlink:href="#id12" x1="-13399.49" y1="3421.28" x2="-14253.08" y2="2805.24">
  </linearGradient>
  <linearGradient id="id88" gradientUnits="userSpaceOnUse" xlink:href="#id12" x1="-13399.49" y1="8188.07" x2="-14253.08" y2="7572.03">
  </linearGradient>
  <linearGradient id="id89" gradientUnits="userSpaceOnUse" xlink:href="#id12" x1="-13399.49" y1="5327.99" x2="-14253.08" y2="4711.96">
  </linearGradient>
  <linearGradient id="id90" gradientUnits="userSpaceOnUse" xlink:href="#id12" x1="-13399.49" y1="4374.64" x2="-14253.08" y2="3758.6">
  </linearGradient>
  <linearGradient id="id91" gradientUnits="userSpaceOnUse" xlink:href="#id12" x1="-13399.49" y1="7234.71" x2="-14253.08" y2="6618.67">
  </linearGradient>
  <linearGradient id="id92" gradientUnits="userSpaceOnUse" xlink:href="#id12" x1="-13399.49" y1="9141.43" x2="-14253.08" y2="8525.39">
  </linearGradient>
  <linearGradient id="id93" gradientUnits="userSpaceOnUse" xlink:href="#id73" x1="-15078.73" y1="9002.07" x2="-14225.14" y2="9618.11">
  </linearGradient>
  <linearGradient id="id94" gradientUnits="userSpaceOnUse" xlink:href="#id73" x1="-15078.73" y1="3281.92" x2="-14225.14" y2="3897.96">
  </linearGradient>
  <linearGradient id="id95" gradientUnits="userSpaceOnUse" xlink:href="#id73" x1="-15078.73" y1="8048.71" x2="-14225.14" y2="8664.75">
  </linearGradient>
  <linearGradient id="id96" gradientUnits="userSpaceOnUse" xlink:href="#id73" x1="-15078.73" y1="5188.64" x2="-14225.14" y2="5804.67">
  </linearGradient>
  <linearGradient id="id97" gradientUnits="userSpaceOnUse" xlink:href="#id73" x1="-15078.73" y1="1375.2" x2="-14225.14" y2="1991.24">
  </linearGradient>
  <linearGradient id="id98" gradientUnits="userSpaceOnUse" xlink:href="#id73" x1="-15078.73" y1="6142" x2="-14225.14" y2="6758.03">
  </linearGradient>
  <linearGradient id="id99" gradientUnits="userSpaceOnUse" xlink:href="#id73" x1="-15078.73" y1="7095.35" x2="-14225.14" y2="7711.39">
  </linearGradient>
  <linearGradient id="id100" gradientUnits="userSpaceOnUse" xlink:href="#id73" x1="-15078.73" y1="2328.56" x2="-14225.14" y2="2944.6">
  </linearGradient>
  <linearGradient id="id101" gradientUnits="userSpaceOnUse" xlink:href="#id73" x1="4543.99" y1="2657.25" x2="5448.39" y2="3309.95">
  </linearGradient>
  <linearGradient id="id102" gradientUnits="userSpaceOnUse" xlink:href="#id73" x1="4543.99" y1="1647.15" x2="5448.39" y2="2299.85">
  </linearGradient>
  <linearGradient id="id103" gradientUnits="userSpaceOnUse" xlink:href="#id73" x1="4543.99" y1="4677.45" x2="5448.39" y2="5330.16">
  </linearGradient>
  <linearGradient id="id104" gradientUnits="userSpaceOnUse" xlink:href="#id73" x1="4543.99" y1="8717.86" x2="5448.39" y2="9370.56">
  </linearGradient>
  <linearGradient id="id105" gradientUnits="userSpaceOnUse" xlink:href="#id73" x1="4543.99" y1="637.05" x2="5448.39" y2="1289.75">
  </linearGradient>
  <linearGradient id="id106" gradientUnits="userSpaceOnUse" xlink:href="#id73" x1="4543.99" y1="7707.76" x2="5448.39" y2="8360.46">
  </linearGradient>
  <linearGradient id="id107" gradientUnits="userSpaceOnUse" xlink:href="#id73" x1="4543.99" y1="5687.56" x2="5448.39" y2="6340.26">
  </linearGradient>
  <linearGradient id="id108" gradientUnits="userSpaceOnUse" xlink:href="#id73" x1="4543.99" y1="6697.66" x2="5448.39" y2="7350.36">
  </linearGradient>
  <linearGradient id="id109" gradientUnits="userSpaceOnUse" xlink:href="#id73" x1="4573.61" y1="4825.11" x2="3669.21" y2="4172.4">
  </linearGradient>
  <linearGradient id="id110" gradientUnits="userSpaceOnUse" xlink:href="#id73" x1="4573.61" y1="3815" x2="3669.21" y2="3162.3">
  </linearGradient>
  <linearGradient id="id111" gradientUnits="userSpaceOnUse" xlink:href="#id73" x1="4573.61" y1="2804.9" x2="3669.21" y2="2152.2">
  </linearGradient>
  <linearGradient id="id112" gradientUnits="userSpaceOnUse" xlink:href="#id73" x1="4573.61" y1="1794.8" x2="3669.21" y2="1142.1">
  </linearGradient>
  <linearGradient id="id113" gradientUnits="userSpaceOnUse" xlink:href="#id73" x1="4573.61" y1="8865.51" x2="3669.21" y2="8212.81">
  </linearGradient>
  <linearGradient id="id114" gradientUnits="userSpaceOnUse" xlink:href="#id73" x1="4573.61" y1="7855.41" x2="3669.21" y2="7202.71">
  </linearGradient>
  <linearGradient id="id115" gradientUnits="userSpaceOnUse" xlink:href="#id73" x1="4573.61" y1="6845.31" x2="3669.21" y2="6192.61">
  </linearGradient>
 </defs>
 <g id="Warstwa_x0020_1">
  <metadata id="CorelCorpID_0Corel-Layer"/>
  <rect class="fil0" x="3204.81" y="3158.57" width="3450.12" height="3066.77"/>
  <path class="fil1" d="M16396.67 1425.87l-145.8 252.52 -145.8 252.53 -291.59 0 -291.61 0 -145.8 -252.53 -145.79 -252.52 145.79 -252.53 145.8 -252.52 291.61 0 291.59 0 145.8 252.52 145.8 252.53zm-291.6 -505.05l145.8 -252.53 145.8 -252.53 291.59 0 291.6 0 145.8 252.53 145.79 252.53 -145.79 252.52 -145.8 252.53 -291.6 0 -291.59 0 -145.8 -252.53 -145.8 -252.52zm2041.18 505.05l-145.79 252.52 -145.8 252.53 -291.6 0 -291.61 0 -145.8 -252.53 -145.79 -252.52 145.79 -252.53 145.8 -252.52 291.61 0 291.6 0 145.8 252.52 145.79 252.53zm-3499.15 1010.1l-145.79 252.52 -145.8 252.53 -291.6 0 -291.6 0 -145.81 -252.53 -145.79 -252.52 145.79 -252.53 145.81 -252.52 291.6 0 291.6 0 145.8 252.52 145.79 252.53zm-291.61 -505.05l145.79 -252.53 145.8 -252.52 291.59 0 291.61 0 145.8 252.52 145.79 252.53 -145.79 252.52 -145.8 252.53 -291.61 0 -291.59 0 -145.8 -252.53 -145.79 -252.52zm2041.18 505.05l-145.8 252.52 -145.8 252.53 -291.59 0 -291.61 0 -145.8 -252.53 -145.79 -252.52 145.79 -252.53 145.8 -252.52 291.61 0 291.59 0 145.8 252.52 145.8 252.53zm-291.6 -505.05l145.8 -252.53 145.8 -252.52 291.59 0 291.6 0 145.8 252.52 145.79 252.53 -145.79 252.52 -145.8 252.53 -291.6 0 -291.59 0 -145.8 -252.53 -145.8 -252.52zm2041.18 505.05l-145.79 252.52 -145.8 252.53 -291.6 0 -291.61 0 -145.8 -252.53 -145.79 -252.52 145.79 -252.53 145.8 -252.52 291.61 0 291.6 0 145.8 252.52 145.79 252.53zm-291.62 -505.05l145.79 -252.53 145.81 -252.52 291.6 0 291.6 0 145.8 252.52 145.79 252.53 -145.79 252.52 -145.8 252.53 -291.6 0 -291.6 0 -145.81 -252.53 -145.79 -252.52zm2041.18 505.05l-145.79 252.52 -145.8 252.53 -291.6 0 -291.6 0 -145.8 -252.53 -145.79 -252.52 145.79 -252.53 145.8 -252.52 291.6 0 291.6 0 145.8 252.52 145.79 252.53zm-7289.89 505.05l145.79 -252.53 145.8 -252.52 291.6 0 291.6 0 145.81 252.52 145.79 252.53 -145.79 252.52 -145.81 252.53 -291.6 0 -291.6 0 -145.8 -252.53 -145.79 -252.52zm2041.18 505.05l-145.79 252.52 -145.8 252.53 -291.6 0 -291.6 0 -145.81 -252.53 -145.79 -252.52 145.79 -252.53 145.81 -252.52 291.6 0 291.6 0 145.8 252.52 145.79 252.53zm-291.61 -505.05l145.79 -252.53 145.8 -252.52 291.59 0 291.61 0 145.8 252.52 145.79 252.53 -145.79 252.52 -145.8 252.53 -291.61 0 -291.59 0 -145.8 -252.53 -145.79 -252.52zm2041.18 505.05l-145.8 252.52 -145.8 252.53 -291.59 0 -291.61 0 -145.8 -252.53 -145.79 -252.52 145.79 -252.53 145.8 -252.52 291.61 0 291.59 0 145.8 252.52 145.8 252.53zm-291.6 -505.05l145.8 -252.53 145.8 -252.52 291.59 0 291.6 0 145.8 252.52 145.79 252.53 -145.79 252.52 -145.8 252.53 -291.6 0 -291.59 0 -145.8 -252.53 -145.8 -252.52zm2041.18 505.05l-145.79 252.52 -145.8 252.53 -291.6 0 -291.61 0 -145.8 -252.53 -145.79 -252.52 145.79 -252.53 145.8 -252.52 291.61 0 291.6 0 145.8 252.52 145.79 252.53zm-291.62 -505.05l145.79 -252.53 145.81 -252.52 291.6 0 291.6 0 145.8 252.52 145.79 252.53 -145.79 252.52 -145.8 252.53 -291.6 0 -291.6 0 -145.81 -252.53 -145.79 -252.52zm2041.18 505.05l-145.79 252.52 -145.8 252.53 -291.6 0 -291.6 0 -145.8 -252.53 -145.79 -252.52 145.79 -252.53 145.8 -252.52 291.6 0 291.6 0 145.8 252.52 145.79 252.53zm874.81 -505.05l-145.8 252.52 -145.8 252.53 -291.59 0 -291.6 0 -145.81 -252.53 -145.79 -252.52 145.79 -252.53 145.81 -252.52 291.6 0 291.59 0 145.8 252.52 145.8 252.53zm-8164.7 1010.1l145.79 -252.53 145.8 -252.52 291.6 0 291.6 0 145.81 252.52 145.79 252.53 -145.79 252.52 -145.81 252.53 -291.6 0 -291.6 0 -145.8 -252.53 -145.79 -252.52zm2041.18 505.05l-145.79 252.52 -145.8 252.53 -291.6 0 -291.6 0 -145.81 -252.53 -145.79 -252.52 145.79 -252.53 145.81 -252.52 291.6 0 291.6 0 145.8 252.52 145.79 252.53zm-291.61 -505.05l145.79 -252.53 145.8 -252.52 291.59 0 291.61 0 145.8 252.52 145.79 252.53 -145.79 252.52 -145.8 252.53 -291.61 0 -291.59 0 -145.8 -252.53 -145.79 -252.52zm2041.18 505.05l-145.8 252.52 -145.8 252.53 -291.59 0 -291.61 0 -145.8 -252.53 -145.79 -252.52 145.79 -252.53 145.8 -252.52 291.61 0 291.59 0 145.8 252.52 145.8 252.53zm-291.6 -505.05l145.8 -252.53 145.8 -252.52 291.59 0 291.6 0 145.8 252.52 145.79 252.53 -145.79 252.52 -145.8 252.53 -291.6 0 -291.59 0 -145.8 -252.53 -145.8 -252.52zm2041.18 505.05l-145.79 252.52 -145.8 252.53 -291.6 0 -291.61 0 -145.8 -252.53 -145.79 -252.52 145.79 -252.53 145.8 -252.52 291.61 0 291.6 0 145.8 252.52 145.79 252.53zm-291.62 -505.05l145.79 -252.53 145.81 -252.52 291.6 0 291.6 0 145.8 252.52 145.79 252.53 -145.79 252.52 -145.8 252.53 -291.6 0 -291.6 0 -145.81 -252.53 -145.79 -252.52zm2041.18 505.05l-145.79 252.52 -145.8 252.53 -291.6 0 -291.6 0 -145.8 -252.53 -145.79 -252.52 145.79 -252.53 145.8 -252.52 291.6 0 291.6 0 145.8 252.52 145.79 252.53zm874.81 -505.05l-145.8 252.52 -145.8 252.53 -291.59 0 -291.6 0 -145.81 -252.53 -145.79 -252.52 145.79 -252.53 145.81 -252.52 291.6 0 291.59 0 145.8 252.52 145.8 252.53zm-8164.7 1010.1l145.79 -252.53 145.8 -252.52 291.6 0 291.6 0 145.81 252.52 145.79 252.53 -145.79 252.53 -145.81 252.51 -291.6 0 -291.6 0 -145.8 -252.51 -145.79 -252.53zm2041.18 505.04l-145.79 252.53 -145.8 252.52 -291.6 0 -291.6 0 -145.81 -252.52 -145.79 -252.53 145.79 -252.51 145.81 -252.53 291.6 0 291.6 0 145.8 252.53 145.79 252.51zm-291.61 -505.04l145.79 -252.53 145.8 -252.52 291.59 0 291.61 0 145.8 252.52 145.79 252.53 -145.79 252.53 -145.8 252.51 -291.61 0 -291.59 0 -145.8 -252.51 -145.79 -252.53zm2041.18 505.04l-145.8 252.53 -145.8 252.52 -291.59 0 -291.61 0 -145.8 -252.52 -145.79 -252.53 145.79 -252.51 145.8 -252.53 291.61 0 291.59 0 145.8 252.53 145.8 252.51zm-291.6 -505.04l145.8 -252.53 145.8 -252.52 291.59 0 291.6 0 145.8 252.52 145.79 252.53 -145.79 252.53 -145.8 252.51 -291.6 0 -291.59 0 -145.8 -252.51 -145.8 -252.53zm2041.18 505.04l-145.79 252.53 -145.8 252.52 -291.6 0 -291.61 0 -145.8 -252.52 -145.79 -252.53 145.79 -252.51 145.8 -252.53 291.61 0 291.6 0 145.8 252.53 145.79 252.51zm-291.62 -505.04l145.79 -252.53 145.81 -252.52 291.6 0 291.6 0 145.8 252.52 145.79 252.53 -145.79 252.53 -145.8 252.51 -291.6 0 -291.6 0 -145.81 -252.51 -145.79 -252.53zm2041.18 505.04l-145.79 252.53 -145.8 252.52 -291.6 0 -291.6 0 -145.8 -252.52 -145.79 -252.53 145.79 -252.51 145.8 -252.53 291.6 0 291.6 0 145.8 252.53 145.79 252.51zm874.81 -505.04l-145.8 252.53 -145.8 252.51 -291.59 0 -291.6 0 -145.81 -252.51 -145.79 -252.53 145.79 -252.53 145.81 -252.52 291.6 0 291.59 0 145.8 252.52 145.8 252.53zm-8164.7 1010.09l145.79 -252.52 145.8 -252.53 291.6 0 291.6 0 145.81 252.53 145.79 252.52 -145.79 252.53 -145.81 252.52 -291.6 0 -291.6 0 -145.8 -252.52 -145.79 -252.53zm2041.18 505.05l-145.79 252.53 -145.8 252.52 -291.6 0 -291.6 0 -145.81 -252.52 -145.79 -252.53 145.79 -252.52 145.81 -252.53 291.6 0 291.6 0 145.8 252.53 145.79 252.52zm-291.61 -505.05l145.79 -252.52 145.8 -252.53 291.59 0 291.61 0 145.8 252.53 145.79 252.52 -145.79 252.53 -145.8 252.52 -291.61 0 -291.59 0 -145.8 -252.52 -145.79 -252.53zm2041.18 505.05l-145.8 252.53 -145.8 252.52 -291.59 0 -291.61 0 -145.8 -252.52 -145.79 -252.53 145.79 -252.52 145.8 -252.53 291.61 0 291.59 0 145.8 252.53 145.8 252.52zm-291.6 -505.05l145.8 -252.52 145.8 -252.53 291.59 0 291.6 0 145.8 252.53 145.79 252.52 -145.79 252.53 -145.8 252.52 -291.6 0 -291.59 0 -145.8 -252.52 -145.8 -252.53zm2041.18 505.05l-145.79 252.53 -145.8 252.52 -291.6 0 -291.61 0 -145.8 -252.52 -145.79 -252.53 145.79 -252.52 145.8 -252.53 291.61 0 291.6 0 145.8 252.53 145.79 252.52zm-291.62 -505.05l145.79 -252.52 145.81 -252.53 291.6 0 291.6 0 145.8 252.53 145.79 252.52 -145.79 252.53 -145.8 252.52 -291.6 0 -291.6 0 -145.81 -252.52 -145.79 -252.53zm2041.18 505.05l-145.79 252.53 -145.8 252.52 -291.6 0 -291.6 0 -145.8 -252.52 -145.79 -252.53 145.79 -252.52 145.8 -252.53 291.6 0 291.6 0 145.8 252.53 145.79 252.52zm874.81 -505.05l-145.8 252.53 -145.8 252.52 -291.59 0 -291.6 0 -145.81 -252.52 -145.79 -252.53 145.79 -252.52 145.81 -252.53 291.6 0 291.59 0 145.8 252.53 145.8 252.52zm-8164.7 1010.1l145.79 -252.52 145.8 -252.53 291.6 0 291.6 0 145.81 252.53 145.79 252.52 -145.79 252.53 -145.81 252.52 -291.6 0 -291.6 0 -145.8 -252.52 -145.79 -252.53zm2041.18 505.05l-145.79 252.53 -145.8 252.52 -291.6 0 -291.6 0 -145.81 -252.52 -145.79 -252.53 145.79 -252.52 145.81 -252.53 291.6 0 291.6 0 145.8 252.53 145.79 252.52zm-291.61 -505.05l145.79 -252.52 145.8 -252.53 291.59 0 291.61 0 145.8 252.53 145.79 252.52 -145.79 252.53 -145.8 252.52 -291.61 0 -291.59 0 -145.8 -252.52 -145.79 -252.53zm2041.18 505.05l-145.8 252.53 -145.8 252.52 -291.59 0 -291.61 0 -145.8 -252.52 -145.79 -252.53 145.79 -252.52 145.8 -252.53 291.61 0 291.59 0 145.8 252.53 145.8 252.52zm-291.6 -505.05l145.8 -252.52 145.8 -252.53 291.59 0 291.6 0 145.8 252.53 145.79 252.52 -145.79 252.53 -145.8 252.52 -291.6 0 -291.59 0 -145.8 -252.52 -145.8 -252.53zm2041.18 505.05l-145.79 252.53 -145.8 252.52 -291.6 0 -291.61 0 -145.8 -252.52 -145.79 -252.53 145.79 -252.52 145.8 -252.53 291.61 0 291.6 0 145.8 252.53 145.79 252.52zm-291.62 -505.05l145.79 -252.52 145.81 -252.53 291.6 0 291.6 0 145.8 252.53 145.79 252.52 -145.79 252.53 -145.8 252.52 -291.6 0 -291.6 0 -145.81 -252.52 -145.79 -252.53zm2041.18 505.05l-145.79 252.53 -145.8 252.52 -291.6 0 -291.6 0 -145.8 -252.52 -145.79 -252.53 145.79 -252.52 145.8 -252.53 291.6 0 291.6 0 145.8 252.53 145.79 252.52zm874.81 -505.05l-145.8 252.53 -145.8 252.52 -291.59 0 -291.6 0 -145.81 -252.52 -145.79 -252.53 145.79 -252.52 145.81 -252.53 291.6 0 291.59 0 145.8 252.53 145.8 252.52zm-6415.13 1010.1l145.79 -252.52 145.8 -252.53 291.59 0 291.61 0 145.8 252.53 145.79 252.52 -145.79 252.53 -145.8 252.52 -291.61 0 -291.59 0 -145.8 -252.52 -145.79 -252.53zm2041.18 505.05l-145.8 252.53 -145.8 252.52 -291.59 0 -291.61 0 -145.8 -252.52 -145.79 -252.53 145.79 -252.52 145.8 -252.53 291.61 0 291.59 0 145.8 252.53 145.8 252.52zm-291.6 -505.05l145.8 -252.52 145.8 -252.53 291.59 0 291.6 0 145.8 252.53 145.79 252.52 -145.79 252.53 -145.8 252.52 -291.6 0 -291.59 0 -145.8 -252.52 -145.8 -252.53zm2041.18 505.05l-145.79 252.53 -145.8 252.52 -291.6 0 -291.61 0 -145.8 -252.52 -145.79 -252.53 145.79 -252.52 145.8 -252.53 291.61 0 291.6 0 145.8 252.53 145.79 252.52zm-291.62 -505.05l145.79 -252.52 145.81 -252.53 291.6 0 291.6 0 145.8 252.53 145.79 252.52 -145.79 252.53 -145.8 252.52 -291.6 0 -291.6 0 -145.81 -252.52 -145.79 -252.53zm-1749.56 1010.1l145.8 -252.52 145.8 -252.53 291.59 0 291.6 0 145.8 252.53 145.79 252.52 -145.79 252.53 -145.8 252.52 -291.6 0 -291.59 0 -145.8 -252.52 -145.8 -252.53z"/>
  <g id="_1964062004240">
   <polygon class="fil2 str0" points="4704.6,1468.45 4558.81,1720.98 4413,1973.5 4121.41,1973.5 3829.81,1973.5 3684.01,1720.98 3538.22,1468.45 3684.01,1215.93 3829.81,963.4 4121.41,963.4 4413,963.4 4558.81,1215.93 "/>
   <polygon class="fil3 str0" points="4413,963.4 4558.79,710.88 4704.6,458.35 4996.19,458.35 5287.79,458.35 5433.59,710.88 5579.38,963.4 5433.59,1215.93 5287.79,1468.45 4996.19,1468.45 4704.6,1468.45 4558.79,1215.93 "/>
   <polygon class="fil4 str0" points="6454.17,1468.45 6308.38,1720.98 6162.58,1973.5 5870.98,1973.5 5579.39,1973.5 5433.58,1720.98 5287.79,1468.45 5433.58,1215.93 5579.39,963.4 5870.98,963.4 6162.58,963.4 6308.38,1215.93 "/>
   <polygon class="fil5 str0" points="2955.04,2478.55 2809.25,2731.08 2663.44,2983.6 2371.85,2983.6 2080.25,2983.6 1934.45,2731.08 1788.66,2478.55 1934.45,2226.03 2080.25,1973.5 2371.85,1973.5 2663.44,1973.5 2809.25,2226.03 "/>
   <polygon class="fil6 str0" points="2663.42,1973.5 2809.21,1720.98 2955.02,1468.45 3246.61,1468.45 3538.21,1468.45 3684.01,1720.98 3829.81,1973.5 3684.01,2226.03 3538.21,2478.55 3246.61,2478.55 2955.02,2478.55 2809.21,2226.03 "/>
   <polygon class="fil7 str0" points="4704.6,2478.55 4558.81,2731.08 4413,2983.6 4121.41,2983.6 3829.81,2983.6 3684.01,2731.08 3538.22,2478.55 3684.01,2226.03 3829.81,1973.5 4121.41,1973.5 4413,1973.5 4558.81,2226.03 "/>
   <polygon class="fil8 str0" points="4413,1973.5 4558.79,1720.98 4704.6,1468.45 4996.19,1468.45 5287.79,1468.45 5433.59,1720.98 5579.38,1973.5 5433.59,2226.03 5287.79,2478.55 4996.19,2478.55 4704.6,2478.55 4558.79,2226.03 "/>
   <polygon class="fil9 str0" points="6454.17,2478.55 6308.38,2731.08 6162.58,2983.6 5870.98,2983.6 5579.39,2983.6 5433.58,2731.08 5287.79,2478.55 5433.58,2226.03 5579.39,1973.5 5870.98,1973.5 6162.58,1973.5 6308.38,2226.03 "/>
   <polygon class="fil10 str0" points="6162.56,1973.5 6308.35,1720.98 6454.16,1468.45 6745.75,1468.45 7037.35,1468.45 7183.15,1720.98 7328.94,1973.5 7183.15,2226.03 7037.35,2478.55 6745.75,2478.55 6454.16,2478.55 6308.35,2226.03 "/>
   <polygon class="fil11 str0" points="8203.73,2478.55 8057.94,2731.08 7912.14,2983.6 7620.54,2983.6 7328.95,2983.6 7183.14,2731.08 7037.35,2478.55 7183.14,2226.03 7328.95,1973.5 7620.54,1973.5 7912.14,1973.5 8057.94,2226.03 "/>
   <polygon class="fil12 str0" points="913.86,2983.6 1059.65,2731.08 1205.46,2478.55 1497.05,2478.55 1788.65,2478.55 1934.46,2731.08 2080.25,2983.6 1934.46,3236.13 1788.65,3488.65 1497.05,3488.65 1205.46,3488.65 1059.65,3236.13 "/>
   <polygon class="fil13 str0" points="2955.04,3488.65 2809.25,3741.18 2663.44,3993.7 2371.85,3993.7 2080.25,3993.7 1934.45,3741.18 1788.66,3488.65 1934.45,3236.13 2080.25,2983.6 2371.85,2983.6 2663.44,2983.6 2809.25,3236.13 "/>
   <polygon class="fil14 str0" points="2663.42,2983.6 2809.21,2731.08 2955.02,2478.55 3246.61,2478.55 3538.21,2478.55 3684.01,2731.08 3829.81,2983.6 3684.01,3236.13 3538.21,3488.65 3246.61,3488.65 2955.02,3488.65 2809.21,3236.13 "/>
   <polygon class="fil15 str0" points="4704.6,3488.65 4558.81,3741.18 4413,3993.7 4121.41,3993.7 3829.81,3993.7 3684.01,3741.18 3538.22,3488.65 3684.01,3236.13 3829.81,2983.6 4121.41,2983.6 4413,2983.6 4558.81,3236.13 "/>
   <polygon class="fil16 str0" points="4413,2983.6 4558.79,2731.08 4704.6,2478.55 4996.19,2478.55 5287.79,2478.55 5433.59,2731.08 5579.38,2983.6 5433.59,3236.13 5287.79,3488.65 4996.19,3488.65 4704.6,3488.65 4558.79,3236.13 "/>
   <polygon class="fil17 str0" points="6454.17,3488.65 6308.38,3741.18 6162.58,3993.7 5870.98,3993.7 5579.39,3993.7 5433.58,3741.18 5287.79,3488.65 5433.58,3236.13 5579.39,2983.6 5870.98,2983.6 6162.58,2983.6 6308.38,3236.13 "/>
   <polygon class="fil18 str0" points="6162.56,2983.6 6308.35,2731.08 6454.16,2478.55 6745.75,2478.55 7037.35,2478.55 7183.15,2731.08 7328.94,2983.6 7183.15,3236.13 7037.35,3488.65 6745.75,3488.65 6454.16,3488.65 6308.35,3236.13 "/>
   <polygon class="fil19 str0" points="8203.73,3488.65 8057.94,3741.18 7912.14,3993.7 7620.54,3993.7 7328.95,3993.7 7183.14,3741.18 7037.35,3488.65 7183.14,3236.13 7328.95,2983.6 7620.54,2983.6 7912.14,2983.6 8057.94,3236.13 "/>
   <polygon class="fil20 str0" points="9078.53,2983.6 8932.74,3236.13 8786.94,3488.65 8495.34,3488.65 8203.75,3488.65 8057.94,3236.13 7912.15,2983.6 8057.94,2731.08 8203.75,2478.55 8495.34,2478.55 8786.94,2478.55 8932.74,2731.08 "/>
   <polygon class="fil21 str0" points="913.86,3993.7 1059.65,3741.18 1205.46,3488.65 1497.05,3488.65 1788.65,3488.65 1934.46,3741.18 2080.25,3993.7 1934.46,4246.23 1788.65,4498.76 1497.05,4498.76 1205.46,4498.76 1059.65,4246.23 "/>
   <polygon class="fil22 str0" points="2955.04,4498.75 2809.25,4751.28 2663.44,5003.81 2371.85,5003.81 2080.25,5003.81 1934.45,4751.28 1788.66,4498.75 1934.45,4246.23 2080.25,3993.7 2371.85,3993.7 2663.44,3993.7 2809.25,4246.23 "/>
   <polygon class="fil23 str0" points="2663.42,3993.7 2809.21,3741.18 2955.02,3488.65 3246.61,3488.65 3538.21,3488.65 3684.01,3741.18 3829.81,3993.7 3684.01,4246.23 3538.21,4498.76 3246.61,4498.76 2955.02,4498.76 2809.21,4246.23 "/>
   <polygon class="fil24 str0" points="4704.6,4498.75 4558.81,4751.28 4413,5003.81 4121.41,5003.81 3829.81,5003.81 3684.01,4751.28 3538.22,4498.75 3684.01,4246.23 3829.81,3993.7 4121.41,3993.7 4413,3993.7 4558.81,4246.23 "/>
   <polygon class="fil25 str0" points="6454.17,4498.75 6308.38,4751.28 6162.58,5003.81 5870.98,5003.81 5579.39,5003.81 5433.58,4751.28 5287.79,4498.75 5433.58,4246.23 5579.39,3993.7 5870.98,3993.7 6162.58,3993.7 6308.38,4246.23 "/>
   <polygon class="fil26 str0" points="6162.56,3993.7 6308.35,3741.18 6454.16,3488.65 6745.75,3488.65 7037.35,3488.65 7183.15,3741.18 7328.94,3993.7 7183.15,4246.23 7037.35,4498.76 6745.75,4498.76 6454.16,4498.76 6308.35,4246.23 "/>
   <polygon class="fil27 str0" points="8203.73,4498.75 8057.94,4751.28 7912.14,5003.81 7620.54,5003.81 7328.95,5003.81 7183.14,4751.28 7037.35,4498.75 7183.14,4246.23 7328.95,3993.7 7620.54,3993.7 7912.14,3993.7 8057.94,4246.23 "/>
   <polygon class="fil28 str0" points="9078.53,3993.7 8932.74,4246.23 8786.94,4498.76 8495.34,4498.76 8203.75,4498.76 8057.94,4246.23 7912.15,3993.7 8057.94,3741.18 8203.75,3488.65 8495.34,3488.65 8786.94,3488.65 8932.74,3741.18 "/>
   <polygon class="fil29 str0" points="913.86,5003.81 1059.65,4751.28 1205.46,4498.75 1497.05,4498.75 1788.65,4498.75 1934.46,4751.28 2080.25,5003.81 1934.46,5256.33 1788.65,5508.86 1497.05,5508.86 1205.46,5508.86 1059.65,5256.33 "/>
   <polygon class="fil30 str0" points="2955.04,5508.86 2809.25,5761.38 2663.44,6013.91 2371.85,6013.91 2080.25,6013.91 1934.45,5761.38 1788.66,5508.86 1934.45,5256.33 2080.25,5003.8 2371.85,5003.8 2663.44,5003.8 2809.25,5256.33 "/>
   <polygon class="fil31 str0" points="2663.42,5003.81 2809.21,4751.28 2955.02,4498.75 3246.61,4498.75 3538.21,4498.75 3684.01,4751.28 3829.81,5003.81 3684.01,5256.33 3538.21,5508.86 3246.61,5508.86 2955.02,5508.86 2809.21,5256.33 "/>
   <polygon class="fil32 str0" points="4413,5003.81 4558.79,4751.28 4704.6,4498.75 4996.19,4498.75 5287.79,4498.75 5433.59,4751.28 5579.38,5003.81 5433.59,5256.33 5287.79,5508.86 4996.19,5508.86 4704.6,5508.86 4558.79,5256.33 "/>
   <polygon class="fil33 str0" points="6162.56,5003.81 6308.35,4751.28 6454.16,4498.75 6745.75,4498.75 7037.35,4498.75 7183.15,4751.28 7328.94,5003.81 7183.15,5256.33 7037.35,5508.86 6745.75,5508.86 6454.16,5508.86 6308.35,5256.33 "/>
   <polygon class="fil34 str0" points="8203.73,5508.86 8057.94,5761.38 7912.14,6013.91 7620.54,6013.91 7328.95,6013.91 7183.14,5761.38 7037.35,5508.86 7183.14,5256.33 7328.95,5003.8 7620.54,5003.8 7912.14,5003.8 8057.94,5256.33 "/>
   <polygon class="fil35 str0" points="9078.53,5003.81 8932.74,5256.33 8786.94,5508.86 8495.34,5508.86 8203.75,5508.86 8057.94,5256.33 7912.15,5003.81 8057.94,4751.28 8203.75,4498.75 8495.34,4498.75 8786.94,4498.75 8932.74,4751.28 "/>
   <polygon class="fil36 str0" points="913.86,6013.91 1059.65,5761.38 1205.46,5508.86 1497.05,5508.86 1788.65,5508.86 1934.46,5761.38 2080.25,6013.91 1934.46,6266.43 1788.65,6518.96 1497.05,6518.96 1205.46,6518.96 1059.65,6266.43 "/>
   <polygon class="fil37 str0" points="2955.04,6518.96 2809.25,6771.48 2663.44,7024.01 2371.85,7024.01 2080.25,7024.01 1934.45,6771.48 1788.66,6518.96 1934.45,6266.43 2080.25,6013.91 2371.85,6013.91 2663.44,6013.91 2809.25,6266.43 "/>
   <polygon class="fil38 str0" points="2663.42,6013.91 2809.21,5761.38 2955.02,5508.86 3246.61,5508.86 3538.21,5508.86 3684.01,5761.38 3829.81,6013.91 3684.01,6266.43 3538.21,6518.96 3246.61,6518.96 2955.02,6518.96 2809.21,6266.43 "/>
   <polygon class="fil39 str0" points="4704.6,6518.96 4558.81,6771.48 4413,7024.01 4121.41,7024.01 3829.81,7024.01 3684.01,6771.48 3538.22,6518.96 3684.01,6266.43 3829.81,6013.91 4121.41,6013.91 4413,6013.91 4558.81,6266.43 "/>
   <polygon class="fil40 str0" points="4413,6013.91 4558.79,5761.38 4704.6,5508.86 4996.19,5508.86 5287.79,5508.86 5433.59,5761.38 5579.38,6013.91 5433.59,6266.43 5287.79,6518.96 4996.19,6518.96 4704.6,6518.96 4558.79,6266.43 "/>
   <polygon class="fil41 str0" points="6454.17,6518.96 6308.38,6771.48 6162.58,7024.01 5870.98,7024.01 5579.39,7024.01 5433.58,6771.48 5287.79,6518.96 5433.58,6266.43 5579.39,6013.91 5870.98,6013.91 6162.58,6013.91 6308.38,6266.43 "/>
   <polygon class="fil42 str0" points="6162.56,6013.91 6308.35,5761.38 6454.16,5508.86 6745.75,5508.86 7037.35,5508.86 7183.15,5761.38 7328.94,6013.91 7183.15,6266.43 7037.35,6518.96 6745.75,6518.96 6454.16,6518.96 6308.35,6266.43 "/>
   <polygon class="fil43 str0" points="8203.73,6518.96 8057.94,6771.48 7912.14,7024.01 7620.54,7024.01 7328.95,7024.01 7183.14,6771.48 7037.35,6518.96 7183.14,6266.43 7328.95,6013.91 7620.54,6013.91 7912.14,6013.91 8057.94,6266.43 "/>
   <polygon class="fil44 str0" points="9078.53,6013.91 8932.74,6266.43 8786.94,6518.96 8495.34,6518.96 8203.75,6518.96 8057.94,6266.43 7912.15,6013.91 8057.94,5761.38 8203.75,5508.86 8495.34,5508.86 8786.94,5508.86 8932.74,5761.38 "/>
   <polygon class="fil45 str0" points="913.86,7024.01 1059.65,6771.48 1205.46,6518.96 1497.05,6518.96 1788.65,6518.96 1934.46,6771.48 2080.25,7024.01 1934.46,7276.53 1788.65,7529.06 1497.05,7529.06 1205.46,7529.06 1059.65,7276.53 "/>
   <polygon class="fil46 str0" points="2955.04,7529.06 2809.25,7781.58 2663.44,8034.11 2371.85,8034.11 2080.25,8034.11 1934.45,7781.58 1788.66,7529.06 1934.45,7276.53 2080.25,7024.01 2371.85,7024.01 2663.44,7024.01 2809.25,7276.53 "/>
   <polygon class="fil47 str0" points="2663.42,7024.01 2809.21,6771.48 2955.02,6518.96 3246.61,6518.96 3538.21,6518.96 3684.01,6771.48 3829.81,7024.01 3684.01,7276.53 3538.21,7529.06 3246.61,7529.06 2955.02,7529.06 2809.21,7276.53 "/>
   <polygon class="fil48 str0" points="4704.6,7529.06 4558.81,7781.58 4413,8034.11 4121.41,8034.11 3829.81,8034.11 3684.01,7781.58 3538.22,7529.06 3684.01,7276.53 3829.81,7024.01 4121.41,7024.01 4413,7024.01 4558.81,7276.53 "/>
   <polygon class="fil49 str0" points="4413,7024.01 4558.79,6771.48 4704.6,6518.96 4996.19,6518.96 5287.79,6518.96 5433.59,6771.48 5579.38,7024.01 5433.59,7276.53 5287.79,7529.06 4996.19,7529.06 4704.6,7529.06 4558.79,7276.53 "/>
   <polygon class="fil50 str0" points="6454.17,7529.06 6308.38,7781.58 6162.58,8034.11 5870.98,8034.11 5579.39,8034.11 5433.58,7781.58 5287.79,7529.06 5433.58,7276.53 5579.39,7024.01 5870.98,7024.01 6162.58,7024.01 6308.38,7276.53 "/>
   <polygon class="fil51 str0" points="6162.56,7024.01 6308.35,6771.48 6454.16,6518.96 6745.75,6518.96 7037.35,6518.96 7183.15,6771.48 7328.94,7024.01 7183.15,7276.53 7037.35,7529.06 6745.75,7529.06 6454.16,7529.06 6308.35,7276.53 "/>
   <polygon class="fil52 str0" points="8203.73,7529.06 8057.94,7781.58 7912.14,8034.11 7620.54,8034.11 7328.95,8034.11 7183.14,7781.58 7037.35,7529.06 7183.14,7276.53 7328.95,7024.01 7620.54,7024.01 7912.14,7024.01 8057.94,7276.53 "/>
   <polygon class="fil53 str0" points="9078.53,7024.01 8932.74,7276.53 8786.94,7529.06 8495.34,7529.06 8203.75,7529.06 8057.94,7276.53 7912.15,7024.01 8057.94,6771.48 8203.75,6518.96 8495.34,6518.96 8786.94,6518.96 8932.74,6771.48 "/>
   <polygon class="fil54 str0" points="2663.42,8034.11 2809.21,7781.58 2955.02,7529.06 3246.61,7529.06 3538.21,7529.06 3684.01,7781.58 3829.81,8034.11 3684.01,8286.64 3538.21,8539.16 3246.61,8539.16 2955.02,8539.16 2809.21,8286.64 "/>
   <polygon class="fil55 str0" points="4704.6,8539.16 4558.81,8791.69 4413,9044.21 4121.41,9044.21 3829.81,9044.21 3684.01,8791.69 3538.22,8539.16 3684.01,8286.63 3829.81,8034.11 4121.41,8034.11 4413,8034.11 4558.81,8286.63 "/>
   <polygon class="fil56 str0" points="4413,8034.11 4558.79,7781.58 4704.6,7529.06 4996.19,7529.06 5287.79,7529.06 5433.59,7781.58 5579.38,8034.11 5433.59,8286.64 5287.79,8539.16 4996.19,8539.16 4704.6,8539.16 4558.79,8286.64 "/>
   <polygon class="fil57 str0" points="6454.17,8539.16 6308.38,8791.69 6162.58,9044.21 5870.98,9044.21 5579.39,9044.21 5433.58,8791.69 5287.79,8539.16 5433.58,8286.63 5579.39,8034.11 5870.98,8034.11 6162.58,8034.11 6308.38,8286.63 "/>
   <polygon class="fil58 str0" points="6162.56,8034.11 6308.35,7781.58 6454.16,7529.06 6745.75,7529.06 7037.35,7529.06 7183.15,7781.58 7328.94,8034.11 7183.15,8286.64 7037.35,8539.16 6745.75,8539.16 6454.16,8539.16 6308.35,8286.64 "/>
   <polygon class="fil59 str0" points="4413,9044.21 4558.79,8791.69 4704.6,8539.16 4996.19,8539.16 5287.79,8539.16 5433.59,8791.69 5579.38,9044.21 5433.59,9296.74 5287.79,9549.26 4996.19,9549.26 4704.6,9549.26 4558.79,9296.74 "/>
  </g>
  <polygon class="fil60 str0" points="-14927.15,2159.9 -15064.75,2398.24 -15202.37,2636.58 -15477.58,2636.58 -15752.8,2636.58 -15890.41,2398.24 -16028.01,2159.9 -15890.41,1921.56 -15752.8,1683.22 -15477.58,1683.22 -15202.37,1683.22 -15064.75,1921.56 "/>
  <polygon class="fil61 str0" points="-15202.37,1683.22 -15064.77,1444.88 -14927.15,1206.54 -14651.94,1206.54 -14376.72,1206.54 -14239.11,1444.88 -14101.51,1683.22 -14239.11,1921.56 -14376.72,2159.9 -14651.94,2159.9 -14927.15,2159.9 -15064.77,1921.56 "/>
  <polygon class="fil62 str0" points="-13275.86,2159.9 -13413.46,2398.24 -13551.07,2636.58 -13826.29,2636.58 -14101.5,2636.58 -14239.12,2398.24 -14376.72,2159.9 -14239.12,1921.56 -14101.5,1683.22 -13826.29,1683.22 -13551.07,1683.22 -13413.46,1921.56 "/>
  <polygon class="fil63 str0" points="-16578.43,3113.26 -16716.03,3351.6 -16853.65,3589.94 -17128.86,3589.94 -17404.08,3589.94 -17541.69,3351.6 -17679.29,3113.26 -17541.69,2874.92 -17404.08,2636.58 -17128.86,2636.58 -16853.65,2636.58 -16716.03,2874.92 "/>
  <polygon class="fil64 str0" points="-16853.66,2636.58 -16716.06,2398.24 -16578.45,2159.9 -16303.23,2159.9 -16028.02,2159.9 -15890.4,2398.24 -15752.8,2636.58 -15890.4,2874.92 -16028.02,3113.26 -16303.23,3113.26 -16578.45,3113.26 -16716.06,2874.92 "/>
  <polygon class="fil65 str0" points="-14927.15,3113.26 -15064.75,3351.6 -15202.37,3589.94 -15477.58,3589.94 -15752.8,3589.94 -15890.41,3351.6 -16028.01,3113.26 -15890.41,2874.92 -15752.8,2636.58 -15477.58,2636.58 -15202.37,2636.58 -15064.75,2874.92 "/>
  <polygon class="fil66 str0" points="-15202.37,2636.58 -15064.77,2398.24 -14927.15,2159.9 -14651.94,2159.9 -14376.72,2159.9 -14239.11,2398.24 -14101.51,2636.58 -14239.11,2874.92 -14376.72,3113.26 -14651.94,3113.26 -14927.15,3113.26 -15064.77,2874.92 "/>
  <polygon class="fil67 str0" points="-13275.86,3113.26 -13413.46,3351.6 -13551.07,3589.94 -13826.29,3589.94 -14101.5,3589.94 -14239.12,3351.6 -14376.72,3113.26 -14239.12,2874.92 -14101.5,2636.58 -13826.29,2636.58 -13551.07,2636.58 -13413.46,2874.92 "/>
  <polygon class="fil68 str0" points="-13551.09,2636.58 -13413.49,2398.24 -13275.87,2159.9 -13000.66,2159.9 -12725.44,2159.9 -12587.83,2398.24 -12450.23,2636.58 -12587.83,2874.92 -12725.44,3113.26 -13000.66,3113.26 -13275.87,3113.26 -13413.49,2874.92 "/>
  <polygon class="fil69 str0" points="-11624.58,3113.26 -11762.18,3351.6 -11899.79,3589.94 -12175.01,3589.94 -12450.22,3589.94 -12587.84,3351.6 -12725.44,3113.26 -12587.84,2874.92 -12450.22,2636.58 -12175.01,2636.58 -11899.79,2636.58 -11762.18,2874.92 "/>
  <polygon class="fil70 str0" points="-18504.94,3589.94 -18367.34,3351.6 -18229.73,3113.26 -17954.51,3113.26 -17679.3,3113.26 -17541.68,3351.6 -17404.08,3589.94 -17541.68,3828.28 -17679.3,4066.62 -17954.51,4066.62 -18229.73,4066.62 -18367.34,3828.28 "/>
  <polygon class="fil71 str0" points="-16578.43,4066.62 -16716.03,4304.96 -16853.65,4543.3 -17128.86,4543.3 -17404.08,4543.3 -17541.69,4304.96 -17679.29,4066.62 -17541.69,3828.28 -17404.08,3589.94 -17128.86,3589.94 -16853.65,3589.94 -16716.03,3828.28 "/>
  <polygon class="fil72 str0" points="-16853.66,3589.94 -16716.06,3351.6 -16578.45,3113.26 -16303.23,3113.26 -16028.02,3113.26 -15890.4,3351.6 -15752.8,3589.94 -15890.4,3828.28 -16028.02,4066.62 -16303.23,4066.62 -16578.45,4066.62 -16716.06,3828.28 "/>
  <polygon class="fil73 str0" points="-14927.15,4066.62 -15064.75,4304.96 -15202.37,4543.3 -15477.58,4543.3 -15752.8,4543.3 -15890.41,4304.96 -16028.01,4066.62 -15890.41,3828.28 -15752.8,3589.94 -15477.58,3589.94 -15202.37,3589.94 -15064.75,3828.28 "/>
  <polygon class="fil74 str0" points="-15202.37,3589.94 -15064.77,3351.6 -14927.15,3113.26 -14651.94,3113.26 -14376.72,3113.26 -14239.11,3351.6 -14101.51,3589.94 -14239.11,3828.28 -14376.72,4066.62 -14651.94,4066.62 -14927.15,4066.62 -15064.77,3828.28 "/>
  <polygon class="fil75 str0" points="-13275.86,4066.62 -13413.46,4304.96 -13551.07,4543.3 -13826.29,4543.3 -14101.5,4543.3 -14239.12,4304.96 -14376.72,4066.62 -14239.12,3828.28 -14101.5,3589.94 -13826.29,3589.94 -13551.07,3589.94 -13413.46,3828.28 "/>
  <polygon class="fil76 str0" points="-13551.09,3589.94 -13413.49,3351.6 -13275.87,3113.26 -13000.66,3113.26 -12725.44,3113.26 -12587.83,3351.6 -12450.23,3589.94 -12587.83,3828.28 -12725.44,4066.62 -13000.66,4066.62 -13275.87,4066.62 -13413.49,3828.28 "/>
  <polygon class="fil77 str0" points="-11624.58,4066.62 -11762.18,4304.96 -11899.79,4543.3 -12175.01,4543.3 -12450.22,4543.3 -12587.84,4304.96 -12725.44,4066.62 -12587.84,3828.28 -12450.22,3589.94 -12175.01,3589.94 -11899.79,3589.94 -11762.18,3828.28 "/>
  <polygon class="fil78 str0" points="-10798.92,3589.94 -10936.52,3828.28 -11074.14,4066.62 -11349.35,4066.62 -11624.57,4066.62 -11762.18,3828.28 -11899.78,3589.94 -11762.18,3351.6 -11624.57,3113.26 -11349.35,3113.26 -11074.14,3113.26 -10936.52,3351.6 "/>
  <polygon class="fil79 str0" points="-18504.94,4543.3 -18367.34,4304.96 -18229.73,4066.62 -17954.51,4066.62 -17679.3,4066.62 -17541.68,4304.96 -17404.08,4543.3 -17541.68,4781.64 -17679.3,5019.98 -17954.51,5019.98 -18229.73,5019.98 -18367.34,4781.64 "/>
  <polygon class="fil80 str0" points="-16578.43,5019.98 -16716.03,5258.32 -16853.65,5496.66 -17128.86,5496.66 -17404.08,5496.66 -17541.69,5258.32 -17679.29,5019.98 -17541.69,4781.64 -17404.08,4543.3 -17128.86,4543.3 -16853.65,4543.3 -16716.03,4781.64 "/>
  <polygon class="fil81 str0" points="-16853.66,4543.3 -16716.06,4304.96 -16578.45,4066.62 -16303.23,4066.62 -16028.02,4066.62 -15890.4,4304.96 -15752.8,4543.3 -15890.4,4781.64 -16028.02,5019.98 -16303.23,5019.98 -16578.45,5019.98 -16716.06,4781.64 "/>
  <polygon class="fil82 str0" points="-14927.15,5019.98 -15064.75,5258.32 -15202.37,5496.66 -15477.58,5496.66 -15752.8,5496.66 -15890.41,5258.32 -16028.01,5019.98 -15890.41,4781.64 -15752.8,4543.3 -15477.58,4543.3 -15202.37,4543.3 -15064.75,4781.64 "/>
  <polygon class="fil83 str0" points="-13275.86,5019.98 -13413.46,5258.32 -13551.07,5496.66 -13826.29,5496.66 -14101.5,5496.66 -14239.12,5258.32 -14376.72,5019.98 -14239.12,4781.64 -14101.5,4543.3 -13826.29,4543.3 -13551.07,4543.3 -13413.46,4781.64 "/>
  <polygon class="fil84 str0" points="-13551.09,4543.3 -13413.49,4304.96 -13275.87,4066.62 -13000.66,4066.62 -12725.44,4066.62 -12587.83,4304.96 -12450.23,4543.3 -12587.83,4781.64 -12725.44,5019.98 -13000.66,5019.98 -13275.87,5019.98 -13413.49,4781.64 "/>
  <polygon class="fil85 str0" points="-11624.58,5019.98 -11762.18,5258.32 -11899.79,5496.66 -12175.01,5496.66 -12450.22,5496.66 -12587.84,5258.32 -12725.44,5019.98 -12587.84,4781.64 -12450.22,4543.3 -12175.01,4543.3 -11899.79,4543.3 -11762.18,4781.64 "/>
  <polygon class="fil86 str0" points="-10798.92,4543.3 -10936.52,4781.64 -11074.14,5019.98 -11349.35,5019.98 -11624.57,5019.98 -11762.18,4781.64 -11899.78,4543.3 -11762.18,4304.96 -11624.57,4066.62 -11349.35,4066.62 -11074.14,4066.62 -10936.52,4304.96 "/>
  <polygon class="fil87 str0" points="-18504.94,5496.66 -18367.34,5258.32 -18229.73,5019.98 -17954.51,5019.98 -17679.3,5019.98 -17541.68,5258.32 -17404.08,5496.66 -17541.68,5735 -17679.3,5973.34 -17954.51,5973.34 -18229.73,5973.34 -18367.34,5735 "/>
  <polygon class="fil88 str0" points="-16578.43,5973.33 -16716.03,6211.67 -16853.65,6450.01 -17128.86,6450.01 -17404.08,6450.01 -17541.69,6211.67 -17679.29,5973.33 -17541.69,5734.99 -17404.08,5496.65 -17128.86,5496.65 -16853.65,5496.65 -16716.03,5734.99 "/>
  <polygon class="fil89 str0" points="-16853.66,5496.66 -16716.06,5258.32 -16578.45,5019.98 -16303.23,5019.98 -16028.02,5019.98 -15890.4,5258.32 -15752.8,5496.66 -15890.4,5735 -16028.02,5973.34 -16303.23,5973.34 -16578.45,5973.34 -16716.06,5735 "/>
  <polygon class="fil90 str0" points="-15202.37,5496.66 -15064.77,5258.32 -14927.15,5019.98 -14651.94,5019.98 -14376.72,5019.98 -14239.11,5258.32 -14101.51,5496.66 -14239.11,5735 -14376.72,5973.34 -14651.94,5973.34 -14927.15,5973.34 -15064.77,5735 "/>
  <polygon class="fil91 str0" points="-13551.09,5496.66 -13413.49,5258.32 -13275.87,5019.98 -13000.66,5019.98 -12725.44,5019.98 -12587.83,5258.32 -12450.23,5496.66 -12587.83,5735 -12725.44,5973.34 -13000.66,5973.34 -13275.87,5973.34 -13413.49,5735 "/>
  <polygon class="fil92 str0" points="-11624.58,5973.33 -11762.18,6211.67 -11899.79,6450.01 -12175.01,6450.01 -12450.22,6450.01 -12587.84,6211.67 -12725.44,5973.33 -12587.84,5734.99 -12450.22,5496.65 -12175.01,5496.65 -11899.79,5496.65 -11762.18,5734.99 "/>
  <polygon class="fil93 str0" points="-10798.92,5496.66 -10936.52,5734.99 -11074.14,5973.33 -11349.35,5973.33 -11624.57,5973.33 -11762.18,5734.99 -11899.78,5496.66 -11762.18,5258.32 -11624.57,5019.98 -11349.35,5019.98 -11074.14,5019.98 -10936.52,5258.32 "/>
  <polygon class="fil94 str0" points="-18504.94,6450.01 -18367.34,6211.67 -18229.73,5973.33 -17954.51,5973.33 -17679.3,5973.33 -17541.68,6211.67 -17404.08,6450.01 -17541.68,6688.35 -17679.3,6926.69 -17954.51,6926.69 -18229.73,6926.69 -18367.34,6688.35 "/>
  <polygon class="fil95 str0" points="-16578.43,6926.69 -16716.03,7165.03 -16853.65,7403.37 -17128.86,7403.37 -17404.08,7403.37 -17541.69,7165.03 -17679.29,6926.69 -17541.69,6688.35 -17404.08,6450.01 -17128.86,6450.01 -16853.65,6450.01 -16716.03,6688.35 "/>
  <polygon class="fil96 str0" points="-16853.66,6450.01 -16716.06,6211.67 -16578.45,5973.33 -16303.23,5973.33 -16028.02,5973.33 -15890.4,6211.67 -15752.8,6450.01 -15890.4,6688.35 -16028.02,6926.69 -16303.23,6926.69 -16578.45,6926.69 -16716.06,6688.35 "/>
  <polygon class="fil97 str0" points="-14927.15,6926.69 -15064.75,7165.03 -15202.37,7403.37 -15477.58,7403.37 -15752.8,7403.37 -15890.41,7165.03 -16028.01,6926.69 -15890.41,6688.35 -15752.8,6450.01 -15477.58,6450.01 -15202.37,6450.01 -15064.75,6688.35 "/>
  <polygon class="fil98 str0" points="-15202.37,6450.01 -15064.77,6211.67 -14927.15,5973.33 -14651.94,5973.33 -14376.72,5973.33 -14239.11,6211.67 -14101.51,6450.01 -14239.11,6688.35 -14376.72,6926.69 -14651.94,6926.69 -14927.15,6926.69 -15064.77,6688.35 "/>
  <polygon class="fil99 str0" points="-13275.86,6926.69 -13413.46,7165.03 -13551.07,7403.37 -13826.29,7403.37 -14101.5,7403.37 -14239.12,7165.03 -14376.72,6926.69 -14239.12,6688.35 -14101.5,6450.01 -13826.29,6450.01 -13551.07,6450.01 -13413.46,6688.35 "/>
  <polygon class="fil100 str0" points="-13551.09,6450.01 -13413.49,6211.67 -13275.87,5973.33 -13000.66,5973.33 -12725.44,5973.33 -12587.83,6211.67 -12450.23,6450.01 -12587.83,6688.35 -12725.44,6926.69 -13000.66,6926.69 -13275.87,6926.69 -13413.49,6688.35 "/>
  <polygon class="fil101 str0" points="-11624.58,6926.69 -11762.18,7165.03 -11899.79,7403.37 -12175.01,7403.37 -12450.22,7403.37 -12587.84,7165.03 -12725.44,6926.69 -12587.84,6688.35 -12450.22,6450.01 -12175.01,6450.01 -11899.79,6450.01 -11762.18,6688.35 "/>
  <polygon class="fil102 str0" points="-10798.92,6450.01 -10936.52,6688.35 -11074.14,6926.69 -11349.35,6926.69 -11624.57,6926.69 -11762.18,6688.35 -11899.78,6450.01 -11762.18,6211.67 -11624.57,5973.33 -11349.35,5973.33 -11074.14,5973.33 -10936.52,6211.67 "/>
  <polygon class="fil103 str0" points="-18504.94,7403.37 -18367.34,7165.03 -18229.73,6926.69 -17954.51,6926.69 -17679.3,6926.69 -17541.68,7165.03 -17404.08,7403.37 -17541.68,7641.71 -17679.3,7880.05 -17954.51,7880.05 -18229.73,7880.05 -18367.34,7641.71 "/>
  <polygon class="fil104 str0" points="-16578.43,7880.05 -16716.03,8118.39 -16853.65,8356.73 -17128.86,8356.73 -17404.08,8356.73 -17541.69,8118.39 -17679.29,7880.05 -17541.69,7641.71 -17404.08,7403.37 -17128.86,7403.37 -16853.65,7403.37 -16716.03,7641.71 "/>
  <polygon class="fil105 str0" points="-16853.66,7403.37 -16716.06,7165.03 -16578.45,6926.69 -16303.23,6926.69 -16028.02,6926.69 -15890.4,7165.03 -15752.8,7403.37 -15890.4,7641.71 -16028.02,7880.05 -16303.23,7880.05 -16578.45,7880.05 -16716.06,7641.71 "/>
  <polygon class="fil106 str0" points="-14927.15,7880.05 -15064.75,8118.39 -15202.37,8356.73 -15477.58,8356.73 -15752.8,8356.73 -15890.41,8118.39 -16028.01,7880.05 -15890.41,7641.71 -15752.8,7403.37 -15477.58,7403.37 -15202.37,7403.37 -15064.75,7641.71 "/>
  <polygon class="fil107 str0" points="-15202.37,7403.37 -15064.77,7165.03 -14927.15,6926.69 -14651.94,6926.69 -14376.72,6926.69 -14239.11,7165.03 -14101.51,7403.37 -14239.11,7641.71 -14376.72,7880.05 -14651.94,7880.05 -14927.15,7880.05 -15064.77,7641.71 "/>
  <polygon class="fil108 str0" points="-13275.86,7880.05 -13413.46,8118.39 -13551.07,8356.73 -13826.29,8356.73 -14101.5,8356.73 -14239.12,8118.39 -14376.72,7880.05 -14239.12,7641.71 -14101.5,7403.37 -13826.29,7403.37 -13551.07,7403.37 -13413.46,7641.71 "/>
  <polygon class="fil109 str0" points="-13551.09,7403.37 -13413.49,7165.03 -13275.87,6926.69 -13000.66,6926.69 -12725.44,6926.69 -12587.83,7165.03 -12450.23,7403.37 -12587.83,7641.71 -12725.44,7880.05 -13000.66,7880.05 -13275.87,7880.05 -13413.49,7641.71 "/>
  <polygon class="fil110 str0" points="-11624.58,7880.05 -11762.18,8118.39 -11899.79,8356.73 -12175.01,8356.73 -12450.22,8356.73 -12587.84,8118.39 -12725.44,7880.05 -12587.84,7641.71 -12450.22,7403.37 -12175.01,7403.37 -11899.79,7403.37 -11762.18,7641.71 "/>
  <polygon class="fil111 str0" points="-10798.92,7403.37 -10936.52,7641.71 -11074.14,7880.05 -11349.35,7880.05 -11624.57,7880.05 -11762.18,7641.71 -11899.78,7403.37 -11762.18,7165.03 -11624.57,6926.69 -11349.35,6926.69 -11074.14,6926.69 -10936.52,7165.03 "/>
  <polygon class="fil112 str0" points="-16853.66,8356.73 -16716.06,8118.39 -16578.45,7880.05 -16303.23,7880.05 -16028.02,7880.05 -15890.4,8118.39 -15752.8,8356.73 -15890.4,8595.07 -16028.02,8833.41 -16303.23,8833.41 -16578.45,8833.41 -16716.06,8595.07 "/>
  <polygon class="fil113 str0" points="-14927.15,8833.41 -15064.75,9071.75 -15202.37,9310.09 -15477.58,9310.09 -15752.8,9310.09 -15890.41,9071.75 -16028.01,8833.41 -15890.41,8595.07 -15752.8,8356.73 -15477.58,8356.73 -15202.37,8356.73 -15064.75,8595.07 "/>
  <polygon class="fil114 str0" points="-15202.37,8356.73 -15064.77,8118.39 -14927.15,7880.05 -14651.94,7880.05 -14376.72,7880.05 -14239.11,8118.39 -14101.51,8356.73 -14239.11,8595.07 -14376.72,8833.41 -14651.94,8833.41 -14927.15,8833.41 -15064.77,8595.07 "/>
  <polygon class="fil115 str0" points="-13275.86,8833.41 -13413.46,9071.75 -13551.07,9310.09 -13826.29,9310.09 -14101.5,9310.09 -14239.12,9071.75 -14376.72,8833.41 -14239.12,8595.07 -14101.5,8356.73 -13826.29,8356.73 -13551.07,8356.73 -13413.46,8595.07 "/>
  <polygon class="fil116 str0" points="-13551.09,8356.73 -13413.49,8118.39 -13275.87,7880.05 -13000.66,7880.05 -12725.44,7880.05 -12587.83,8118.39 -12450.23,8356.73 -12587.83,8595.07 -12725.44,8833.41 -13000.66,8833.41 -13275.87,8833.41 -13413.49,8595.07 "/>
  <polygon class="fil117 str0" points="-15202.37,9310.09 -15064.77,9071.75 -14927.15,8833.41 -14651.94,8833.41 -14376.72,8833.41 -14239.11,9071.75 -14101.51,9310.09 -14239.11,9548.43 -14376.72,9786.77 -14651.94,9786.77 -14927.15,9786.77 -15064.77,9548.43 "/>
 </g>
</svg>
